<?xml version="1.0" encoding="UTF-8" standalone="no"?>
<svg xmlns:dc="http://purl.org/dc/elements/1.1/" xmlns:cc="http://creativecommons.org/ns#" xmlns:rdf="http://www.w3.org/1999/02/22-rdf-syntax-ns#" xmlns:svg="http://www.w3.org/2000/svg" xmlns="http://www.w3.org/2000/svg" width="76.536827mm" height="76.536743mm" viewBox="0 0 76.536827 76.536743" version="1.1" id="svg984">
  <defs id="defs978"/>
  <metadata id="metadata981">
    <rdf:RDF>
      <cc:Work rdf:about="">
        <dc:format>image/svg+xml</dc:format>
        <dc:type rdf:resource="http://purl.org/dc/dcmitype/StillImage"/>
        <dc:title/>
      </cc:Work>
    </rdf:RDF>
  </metadata>
  <g id="layer1" transform="translate(-32.562349,-121.75859)">
    <path style="fill:#ffffff;fill-opacity:0.972549;stroke-width:0.0848127" d="m 53.704294,175.99059 c -0.711467,-0.0722 -1.184249,-0.2148 -1.823473,-0.55021 -0.624387,-0.3276 -1.382795,-0.94169 -1.309495,-1.06029 0.03826,-0.0619 13.593716,-12.50433 14.455493,-13.26857 l 0.212032,-0.18803 1.272191,0.83983 c 2.09627,1.38383 3.04156,1.76603 4.367868,1.76603 1.320004,0 2.199185,-0.35424 4.283049,-1.72574 l 1.357006,-0.89311 0.296846,0.27954 c 0.163264,0.15374 3.479086,3.19428 7.368501,6.75676 l 7.071658,6.47723 -0.41384,0.36643 c -0.458409,0.4059 -1.540428,0.96194 -2.194919,1.12794 -0.334989,0.085 -3.996161,0.10926 -17.429049,0.11567 -9.352748,0.004 -17.233988,-0.0151 -17.513868,-0.0435 z m -4.517943,-14.94141 c 0.01618,-7.31236 0.04984,-10.34213 0.115437,-10.40774 0.06688,-0.0669 0.996482,0.49957 3.350114,2.04145 1.791641,1.1737 3.581937,2.34598 3.978434,2.60507 0.396505,0.25907 1.827724,1.19424 3.180487,2.07815 1.352767,0.8839 2.50761,1.65181 2.566316,1.70647 0.08371,0.0779 -1.041215,1.1509 -5.213055,4.97235 -2.925892,2.68014 -5.837996,5.35006 -6.471345,5.93315 -0.633348,0.58309 -1.236526,1.13354 -1.340392,1.22323 l -0.188852,0.16306 z m 36.721242,4.21823 c -5.380045,-4.93214 -6.620044,-6.10822 -6.530591,-6.19396 0.0607,-0.0582 1.465299,-0.9937 3.121273,-2.07888 7.420108,-4.86244 9.863016,-6.44222 9.901876,-6.40336 0.12764,0.12764 0.190851,4.64156 0.17096,12.20919 l -0.02241,8.55511 z m -15.725706,-4.97456 c -0.173456,-0.0461 -1.404329,-0.79595 -2.735271,-1.66629 -9.874298,-6.45714 -11.892844,-7.77834 -13.994183,-9.15965 l -2.372179,-1.55936 0.209198,-0.16939 c 0.336689,-0.27264 1.113631,-0.6359 1.700714,-0.79518 0.509281,-0.13816 1.666516,-0.14772 17.888744,-0.14772 16.269417,0 17.378403,0.009 17.895531,0.14881 0.54765,0.14783 1.29726,0.50513 1.6886,0.80487 l 0.204361,0.15653 -1.943042,1.27745 c -1.068665,0.7026 -2.925056,1.91915 -4.125298,2.70343 -1.200253,0.7843 -2.860461,1.86987 -3.689363,2.41239 -0.828906,0.54252 -3.186391,2.08528 -5.238862,3.42835 -2.125114,1.39061 -3.892759,2.49044 -4.105703,2.55455 -0.427371,0.12867 -0.926209,0.13271 -1.383247,0.0112 z" id="path915"/>
    <path id="path12-6" style="opacity:0.97;fill:#000080;fill-opacity:0;stroke:#ffffff;stroke-width:7.06501;stroke-miterlimit:4;stroke-dasharray:none;stroke-opacity:1" d="m 70.821414,125.2911 a 34.735955,34.735955 0 0 0 -34.72656,34.73586 34.735955,34.735955 0 0 0 34.735871,34.73587 34.735955,34.735955 0 0 0 34.735945,-34.73587 34.735955,34.735955 0 0 0 -34.735945,-34.73586 34.735955,34.735955 0 0 0 -0.009,0 z"/>
  </g>
</svg>