<?xml version="1.0" encoding="UTF-8" standalone="no"?>
<svg xmlns:dc="http://purl.org/dc/elements/1.1/" xmlns:cc="http://creativecommons.org/ns#" xmlns:rdf="http://www.w3.org/1999/02/22-rdf-syntax-ns#" xmlns:svg="http://www.w3.org/2000/svg" xmlns="http://www.w3.org/2000/svg" width="76.678635mm" height="76.487846mm" viewBox="0 0 76.678635 76.487846" version="1.1" id="svg984">
  <defs id="defs978"/>
  <metadata id="metadata981">
    <rdf:RDF>
      <cc:Work rdf:about="">
        <dc:format>image/svg+xml</dc:format>
        <dc:type rdf:resource="http://purl.org/dc/dcmitype/StillImage"/>
        <dc:title/>
      </cc:Work>
    </rdf:RDF>
  </metadata>
  <g id="layer1" transform="translate(-61.21539,-113.52781)">
    <path style="fill:#ffffff;fill-opacity:1;stroke-width:0.425384" d="M 92.13476,189.55566 C 72.520646,185.4057 59.12063,167.07109 61.485662,147.61991 c 2.039511,-16.77385 14.479845,-30.17893 31.005552,-33.40999 14.954166,-2.92383 30.561776,3.72515 39.017516,16.62178 2.82466,4.30813 4.28672,7.59779 5.29185,11.90671 3.17834,13.62516 -0.64247,26.90302 -10.54631,36.64987 -4.39384,4.32419 -11.09636,8.12891 -17.10414,9.70925 -3.73697,0.98299 -13.315712,1.24089 -17.01537,0.45813 z M 90.007835,178.1078 v -3.97857 h -2.922053 c -4.193204,0 -6.041425,-1.12355 -8.230441,-5.00332 -0.919761,-1.63018 -2.425114,-3.60834 -3.345213,-4.39591 -1.995249,-1.70787 -1.789297,-2.39576 0.62154,-2.07602 1.511253,0.20042 2.134481,0.65232 4.523485,3.2799 2.53399,2.78707 2.940623,3.06661 4.758988,3.27156 3.164791,0.35671 4.840839,-0.12476 5.436043,-1.56173 0.281355,-0.67926 0.876898,-1.56565 1.323451,-1.96975 1.19639,-1.08273 1.024072,-1.30882 -1.208675,-1.58605 -4.957238,-0.61549 -9.575644,-2.94626 -11.485313,-5.79627 -3.129534,-4.67057 -2.950189,-13.43727 0.364155,-17.8008 0.606234,-0.79814 0.695094,-1.53648 0.498226,-4.1396 -0.180776,-2.39023 -0.06544,-3.62419 0.469559,-5.02515 l 0.709178,-1.85697 2.068371,0.32697 c 2.069286,0.32711 4.790064,1.50852 6.906104,2.99874 0.970584,0.68353 1.432266,0.73444 3.354779,0.36983 2.546035,-0.48284 9.059991,-0.50959 11.897031,-0.0489 1.51722,0.24641 2.1524,0.14872 3.06267,-0.47065 2.00629,-1.36535 5.6005,-2.81496 7.31816,-2.95154 1.59134,-0.12653 1.68569,-0.0614 2.26604,1.56446 0.40126,1.1241 0.54263,2.76336 0.41899,4.85858 -0.17134,2.90368 -0.0886,3.31661 1.01234,5.05263 1.59895,2.52127 2.24414,5.656 1.99885,9.71147 -0.2506,4.1433 -1.52276,7.2438 -3.82595,9.32458 -2.38669,2.15623 -4.25992,2.88908 -10.92651,4.27464 l -1.015,0.21096 1.09429,1.14717 c 1.73395,1.81772 1.9992,3.13438 1.9992,9.92389 v 6.38172 l 0.95711,-0.29896 c 9.74609,-3.04437 17.83322,-12.02969 20.37017,-22.63263 1.14774,-4.7968 0.94135,-11.93415 -0.47633,-16.47372 -3.30968,-10.59797 -11.46746,-18.45757 -22.36388,-21.54646 -4.68899,-1.32922 -11.402132,-1.33663 -16.051824,-0.0177 -13.800169,3.9145 -22.957253,15.27195 -23.595289,29.26505 -0.48681,10.67647 3.793599,19.88248 12.432135,26.73806 2.428394,1.92719 7.940114,4.839 9.266589,4.89548 0.175469,0.008 0.319024,-1.77678 0.319024,-3.96501 z" id="path868"/>
  </g>
</svg>