<?xml version="1.0" encoding="UTF-8" standalone="no"?>
<svg xmlns:dc="http://purl.org/dc/elements/1.1/" xmlns:cc="http://creativecommons.org/ns#" xmlns:rdf="http://www.w3.org/1999/02/22-rdf-syntax-ns#" xmlns:svg="http://www.w3.org/2000/svg" xmlns="http://www.w3.org/2000/svg" width="76.536774mm" height="76.536743mm" viewBox="0 0 76.536774 76.536743" version="1.1" id="svg984">
  <defs id="defs978"/>
  <metadata id="metadata981">
    <rdf:RDF>
      <cc:Work rdf:about="">
        <dc:format>image/svg+xml</dc:format>
        <dc:type rdf:resource="http://purl.org/dc/dcmitype/StillImage"/>
        <dc:title/>
      </cc:Work>
    </rdf:RDF>
  </metadata>
  <g id="layer1" transform="translate(-33.030894,-123.04554)">
    <path id="path12" style="opacity:0.97;fill:#000080;fill-opacity:0;stroke:#ffffff;stroke-width:7.06501;stroke-miterlimit:4;stroke-dasharray:none;stroke-opacity:1" d="m 71.289964,126.57805 a 34.735955,34.735955 0 0 0 -34.726565,34.73586 34.735955,34.735955 0 0 0 34.735865,34.73587 34.735955,34.735955 0 0 0 34.735896,-34.73587 34.735955,34.735955 0 0 0 -34.735896,-34.73586 34.735955,34.735955 0 0 0 -0.009,0 z"/>
    <path style="fill:#ffffff;fill-opacity:1;stroke-width:0.264583" d="m 55.125965,178.06852 c -0.10094,-0.10094 -0.18353,-5.46523 -0.18353,-11.92065 v -11.73712 l 3.77032,0.0734 3.770309,0.0734 v 11.77396 11.77395 l -3.586789,0.0733 c -1.97274,0.0403 -3.66938,-0.009 -3.77031,-0.11024 z m 11.987309,-11.72953 v -11.91371 h 3.57187 3.57188 v 1.44824 1.44825 l 1.12448,-1.12302 c 1.84151,-1.83913 2.78114,-2.1705 6.15156,-2.16941 2.65798,7.9e-4 3.02947,0.0636 4.28307,0.72375 3.61866,1.9055 4.39787,4.96656 4.26069,16.73781 l -0.0771,6.61458 -3.61049,0.0734 -3.61049,0.0734 -0.0961,-7.34947 c -0.0918,-7.01883 -0.1233,-7.40496 -0.70115,-8.58261 -0.33279,-0.67822 -0.80796,-1.31702 -1.05593,-1.41955 -1.70681,-0.70575 -3.91167,-0.54742 -4.90582,0.35227 -1.28734,1.16503 -1.35832,1.61246 -1.49817,9.44416 l -0.13229,7.40833 -3.63802,0.0736 -3.63802,0.0736 z M 56.791595,150.65496 c -1.62316,-0.8235 -2.52126,-2.55632 -2.2528,-4.34659 0.35667,-2.37844 2.98067,-4.13096 5.247861,-3.50496 3.834,1.05862 4.407979,6.19257 0.8831,7.89893 -1.453771,0.70376 -2.420941,0.69194 -3.878161,-0.0474 z" id="path899"/>
  </g>
</svg>